<mxfile host="Electron" modified="2023-10-22T23:22:35.726Z" agent="Mozilla/5.0 (Windows NT 10.0; Win64; x64) AppleWebKit/537.36 (KHTML, like Gecko) draw.io/21.7.5 Chrome/114.0.5735.289 Electron/25.8.1 Safari/537.36" etag="E-sQwneiVlQo7GEQcKce" version="21.7.5" type="device">
  <diagram id="slBekxCvx_boaSY8UGNX" name="Página-2">
    <mxGraphModel dx="3956" dy="1347" grid="1" gridSize="10" guides="1" tooltips="1" connect="1" arrows="1" fold="1" page="1" pageScale="1" pageWidth="827" pageHeight="1169" math="0" shadow="0">
      <root>
        <mxCell id="0" />
        <mxCell id="1" parent="0" />
        <mxCell id="n5Yjz4Zl2t3M8lUH_oPP-2" value="" style="edgeStyle=orthogonalEdgeStyle;rounded=0;orthogonalLoop=1;jettySize=auto;html=1;" parent="1" source="VXJAXfdLaul08e9nRnHI-1" target="VXJAXfdLaul08e9nRnHI-23" edge="1">
          <mxGeometry relative="1" as="geometry" />
        </mxCell>
        <mxCell id="VXJAXfdLaul08e9nRnHI-1" value="Cliente" style="shape=umlActor;verticalLabelPosition=bottom;verticalAlign=top;html=1;outlineConnect=0;" parent="1" vertex="1">
          <mxGeometry x="-980" y="683" width="30" height="60" as="geometry" />
        </mxCell>
        <mxCell id="VXJAXfdLaul08e9nRnHI-2" style="edgeStyle=orthogonalEdgeStyle;rounded=0;orthogonalLoop=1;jettySize=auto;html=1;entryX=0;entryY=0.5;entryDx=0;entryDy=0;" parent="1" target="VXJAXfdLaul08e9nRnHI-6" edge="1">
          <mxGeometry relative="1" as="geometry">
            <mxPoint x="-817.7200000000003" y="713.0588235294119" as="sourcePoint" />
            <mxPoint x="-700" y="713.1400000000001" as="targetPoint" />
          </mxGeometry>
        </mxCell>
        <mxCell id="VXJAXfdLaul08e9nRnHI-3" value="Truster.com" style="edgeLabel;html=1;align=center;verticalAlign=middle;resizable=0;points=[];" parent="VXJAXfdLaul08e9nRnHI-2" vertex="1" connectable="0">
          <mxGeometry x="-0.1156" y="-3" relative="1" as="geometry">
            <mxPoint x="-1" y="-7" as="offset" />
          </mxGeometry>
        </mxCell>
        <mxCell id="VXJAXfdLaul08e9nRnHI-5" value="Acceso" style="swimlane;whiteSpace=wrap;html=1;" parent="1" vertex="1">
          <mxGeometry x="-750" y="543" width="100" height="350" as="geometry" />
        </mxCell>
        <mxCell id="VXJAXfdLaul08e9nRnHI-6" value="Acceso Web privada" style="rounded=0;whiteSpace=wrap;html=1;" parent="VXJAXfdLaul08e9nRnHI-5" vertex="1">
          <mxGeometry x="20" y="35" width="50" height="270" as="geometry" />
        </mxCell>
        <mxCell id="VXJAXfdLaul08e9nRnHI-7" value="Google Cloud" style="swimlane;whiteSpace=wrap;html=1;startSize=23;" parent="1" vertex="1">
          <mxGeometry x="-604" y="220" width="724" height="668" as="geometry" />
        </mxCell>
        <mxCell id="n5Yjz4Zl2t3M8lUH_oPP-5" style="edgeStyle=orthogonalEdgeStyle;rounded=0;orthogonalLoop=1;jettySize=auto;html=1;entryX=0;entryY=0.5;entryDx=0;entryDy=0;" parent="VXJAXfdLaul08e9nRnHI-7" source="VXJAXfdLaul08e9nRnHI-17" target="n5Yjz4Zl2t3M8lUH_oPP-4" edge="1">
          <mxGeometry relative="1" as="geometry" />
        </mxCell>
        <mxCell id="VXJAXfdLaul08e9nRnHI-17" value="Consulta: &lt;br&gt;especificación de CIF de la empresa" style="rounded=0;whiteSpace=wrap;html=1;" parent="VXJAXfdLaul08e9nRnHI-7" vertex="1">
          <mxGeometry x="34" y="360" width="136" height="250" as="geometry" />
        </mxCell>
        <mxCell id="n5Yjz4Zl2t3M8lUH_oPP-7" style="edgeStyle=orthogonalEdgeStyle;rounded=0;orthogonalLoop=1;jettySize=auto;html=1;" parent="VXJAXfdLaul08e9nRnHI-7" source="DmqOBLI7kW2jYmyTaXt2-1" edge="1">
          <mxGeometry relative="1" as="geometry">
            <mxPoint x="519.8849999999998" y="369.9999999999998" as="targetPoint" />
          </mxGeometry>
        </mxCell>
        <mxCell id="DmqOBLI7kW2jYmyTaXt2-1" value="Google Cloud Storage (SQL)" style="shape=cylinder3;whiteSpace=wrap;html=1;boundedLbl=1;backgroundOutline=1;size=15;" parent="VXJAXfdLaul08e9nRnHI-7" vertex="1">
          <mxGeometry x="460" y="120" width="119.77" height="80" as="geometry" />
        </mxCell>
        <mxCell id="n5Yjz4Zl2t3M8lUH_oPP-6" style="edgeStyle=orthogonalEdgeStyle;rounded=0;orthogonalLoop=1;jettySize=auto;html=1;" parent="VXJAXfdLaul08e9nRnHI-7" source="n5Yjz4Zl2t3M8lUH_oPP-4" target="DmqOBLI7kW2jYmyTaXt2-1" edge="1">
          <mxGeometry relative="1" as="geometry" />
        </mxCell>
        <mxCell id="n5Yjz4Zl2t3M8lUH_oPP-4" value="Query" style="shape=process;whiteSpace=wrap;html=1;backgroundOutline=1;" parent="VXJAXfdLaul08e9nRnHI-7" vertex="1">
          <mxGeometry x="254" y="130" width="120" height="60" as="geometry" />
        </mxCell>
        <mxCell id="n5Yjz4Zl2t3M8lUH_oPP-8" value="Visualización: http/D3" style="shape=process;whiteSpace=wrap;html=1;backgroundOutline=1;" parent="VXJAXfdLaul08e9nRnHI-7" vertex="1">
          <mxGeometry x="459.77" y="370" width="120" height="60" as="geometry" />
        </mxCell>
        <mxCell id="n5Yjz4Zl2t3M8lUH_oPP-30" value="" style="editableCssRules=.*;html=1;shape=image;verticalLabelPosition=bottom;labelBackgroundColor=#ffffff;verticalAlign=top;aspect=fixed;imageAspect=0;image=data:image/svg+xml,PHN2ZyB4bWxucz0iaHR0cDovL3d3dy53My5vcmcvMjAwMC9zdmciIHhtbG5zOnY9Imh0dHBzOi8vdmVjdGEuaW8vbmFubyIgd2lkdGg9IjE0LjY1OTk5OTg0NzQxMjExIiBoZWlnaHQ9IjIwIiB2aWV3Qm94PSIwIDAgMTQuNjU5OTk5ODQ3NDEyMTEgMjAiPiYjeGE7CTxzdHlsZSB0eXBlPSJ0ZXh0L2NzcyI+JiN4YTsJLnN0MHtmaWxsOiM0Mjg1ZjQ7fSYjeGE7CS5zdDF7ZmlsbDojNjY5ZGY2O30mI3hhOwkuc3Qye2ZpbGw6I2FlY2JmYTt9JiN4YTsJPC9zdHlsZT4mI3hhOwk8c3R5bGU+JiN4YTsJCS5Ee2ZpbGwtcnVsZTpldmVub2RkfSYjeGE7CTwvc3R5bGU+JiN4YTsJPHBhdGggZD0iTTcuMzMgMTUuMzV2LTMuMDFMMCA4LjQ0djMuMDF6bTAgNC42NXYtMy4wMUwwIDEzLjA5djMuMDF6IiBjbGFzcz0ic3QyIEQiLz4mI3hhOwk8cGF0aCBkPSJNMTQuNjYgOC40NGwtNy4zMyAzLjl2My4wMWw3LjMzLTMuOXptMCA0LjY1bC03LjMzIDMuOVYyMGw3LjMzLTMuOXoiIGNsYXNzPSJzdDEgRCIvPiYjeGE7CTxwYXRoIGQ9Ik03LjMzIDB2My4wMWw3LjMzIDMuOVYzLjl6IiBjbGFzcz0ic3QwIEQiLz4mI3hhOwk8cGF0aCBkPSJNMCA2LjkxbDcuMzMtMy45VjBMMCAzLjl6IiBjbGFzcz0iRCBzdDEiLz4mI3hhOwk8cGF0aCBkPSJNNy4zMyAxMC43OVY3Ljc3TDAgMy44N3YzLjAyeiIgY2xhc3M9IkQgc3QyIi8+JiN4YTsJPHBhdGggZD0iTTE0LjY2IDMuODdsLTcuMzMgMy45djMuMDJsNy4zMy0zLjl6IiBjbGFzcz0iRCBzdDEiLz4mI3hhOzwvc3ZnPg==;" parent="VXJAXfdLaul08e9nRnHI-7" vertex="1">
          <mxGeometry x="579.77" y="150" width="30" height="40" as="geometry" />
        </mxCell>
        <mxCell id="VXJAXfdLaul08e9nRnHI-18" style="edgeStyle=orthogonalEdgeStyle;rounded=0;orthogonalLoop=1;jettySize=auto;html=1;" parent="1" source="VXJAXfdLaul08e9nRnHI-6" edge="1">
          <mxGeometry relative="1" as="geometry">
            <mxPoint x="-564" y="713" as="targetPoint" />
          </mxGeometry>
        </mxCell>
        <mxCell id="VXJAXfdLaul08e9nRnHI-19" value="Id usuario" style="edgeLabel;html=1;align=center;verticalAlign=middle;resizable=0;points=[];" parent="VXJAXfdLaul08e9nRnHI-18" vertex="1" connectable="0">
          <mxGeometry x="-0.3341" y="-1" relative="1" as="geometry">
            <mxPoint as="offset" />
          </mxGeometry>
        </mxCell>
        <mxCell id="VXJAXfdLaul08e9nRnHI-23" value="" style="sketch=0;aspect=fixed;pointerEvents=1;shadow=0;dashed=0;html=1;strokeColor=none;labelPosition=center;verticalLabelPosition=bottom;verticalAlign=top;align=center;fillColor=#00188D;shape=mxgraph.azure.laptop" parent="1" vertex="1">
          <mxGeometry x="-870" y="698" width="50" height="30" as="geometry" />
        </mxCell>
        <mxCell id="AGj0jQ9Yn_StHLaHe2Ui-12" value="Procesos API REST (Get api...)" style="edgeStyle=orthogonalEdgeStyle;rounded=0;orthogonalLoop=1;jettySize=auto;html=1;exitX=0;exitY=0.5;exitDx=0;exitDy=0;endArrow=openThin;endFill=0;startArrow=none;startFill=0;entryX=0.958;entryY=0.034;entryDx=0;entryDy=0;entryPerimeter=0;" parent="1" source="AGj0jQ9Yn_StHLaHe2Ui-19" edge="1">
          <mxGeometry x="0.708" relative="1" as="geometry">
            <mxPoint x="1569.9999999999995" y="440.0000000000002" as="sourcePoint" />
            <mxPoint x="1472.5490399999999" y="686.9359999999999" as="targetPoint" />
            <Array as="points">
              <mxPoint x="1470" y="196" />
              <mxPoint x="1470" y="687" />
            </Array>
            <mxPoint y="1" as="offset" />
          </mxGeometry>
        </mxCell>
        <mxCell id="AGj0jQ9Yn_StHLaHe2Ui-13" value="Cloud SQL" style="swimlane;whiteSpace=wrap;html=1;" parent="1" vertex="1">
          <mxGeometry x="1070" y="584" width="500" height="416" as="geometry" />
        </mxCell>
        <mxCell id="2NYjkfPSCdsIpFvjo_9O-4" value="Google Cloud Storage (SQL)" style="shape=cylinder3;whiteSpace=wrap;html=1;boundedLbl=1;backgroundOutline=1;size=15;shadow=1;sketch=1;curveFitting=1;jiggle=2;gradientColor=none;fillColor=#F0FCFF;" parent="AGj0jQ9Yn_StHLaHe2Ui-13" vertex="1">
          <mxGeometry x="70" y="100" width="360" height="190" as="geometry" />
        </mxCell>
        <mxCell id="AGj0jQ9Yn_StHLaHe2Ui-18" value="Procesos vía API" style="swimlane;whiteSpace=wrap;html=1;startSize=23;" parent="1" vertex="1">
          <mxGeometry x="2250" y="80" width="200" height="590" as="geometry" />
        </mxCell>
        <mxCell id="AGj0jQ9Yn_StHLaHe2Ui-19" value="Registros Aceptaciones Impagadas (RAI)" style="rounded=1;whiteSpace=wrap;html=1;" parent="AGj0jQ9Yn_StHLaHe2Ui-18" vertex="1">
          <mxGeometry x="40" y="86" width="120" height="60" as="geometry" />
        </mxCell>
        <mxCell id="AGj0jQ9Yn_StHLaHe2Ui-22" value="Experian Bureau Empresarial" style="rounded=1;whiteSpace=wrap;html=1;" parent="AGj0jQ9Yn_StHLaHe2Ui-18" vertex="1">
          <mxGeometry x="40" y="170" width="120" height="60" as="geometry" />
        </mxCell>
        <mxCell id="AGj0jQ9Yn_StHLaHe2Ui-23" value="Reigstro impagados judiciales" style="rounded=1;whiteSpace=wrap;html=1;" parent="AGj0jQ9Yn_StHLaHe2Ui-18" vertex="1">
          <mxGeometry x="40" y="250" width="120" height="60" as="geometry" />
        </mxCell>
        <mxCell id="AGj0jQ9Yn_StHLaHe2Ui-24" value="Linkedin" style="rounded=1;whiteSpace=wrap;html=1;" parent="AGj0jQ9Yn_StHLaHe2Ui-18" vertex="1">
          <mxGeometry x="40" y="330" width="120" height="60" as="geometry" />
        </mxCell>
        <mxCell id="AGj0jQ9Yn_StHLaHe2Ui-25" value="Twitter" style="rounded=1;whiteSpace=wrap;html=1;" parent="AGj0jQ9Yn_StHLaHe2Ui-18" vertex="1">
          <mxGeometry x="40" y="420" width="120" height="60" as="geometry" />
        </mxCell>
        <mxCell id="_yCvzYgPoQqCo6M3TPPo-1" value="SABI" style="rounded=1;whiteSpace=wrap;html=1;" parent="AGj0jQ9Yn_StHLaHe2Ui-18" vertex="1">
          <mxGeometry x="40" y="505" width="120" height="60" as="geometry" />
        </mxCell>
        <mxCell id="AGj0jQ9Yn_StHLaHe2Ui-26" value="Procesos vía Crawler" style="swimlane;whiteSpace=wrap;html=1;startSize=23;" parent="1" vertex="1">
          <mxGeometry x="2250" y="690" width="200" height="980" as="geometry" />
        </mxCell>
        <mxCell id="_yCvzYgPoQqCo6M3TPPo-40" value="" style="rounded=0;whiteSpace=wrap;html=1;" parent="AGj0jQ9Yn_StHLaHe2Ui-26" vertex="1">
          <mxGeometry x="40" y="160" width="120" height="360" as="geometry" />
        </mxCell>
        <mxCell id="AGj0jQ9Yn_StHLaHe2Ui-27" value="Boletín Oficial del Estado" style="rounded=1;whiteSpace=wrap;html=1;" parent="AGj0jQ9Yn_StHLaHe2Ui-26" vertex="1">
          <mxGeometry x="40" y="86" width="120" height="60" as="geometry" />
        </mxCell>
        <mxCell id="TEdpB6cSkxeQCJ7XjfYa-10" style="edgeStyle=orthogonalEdgeStyle;rounded=0;orthogonalLoop=1;jettySize=auto;html=1;" parent="AGj0jQ9Yn_StHLaHe2Ui-26" source="AGj0jQ9Yn_StHLaHe2Ui-29" edge="1">
          <mxGeometry relative="1" as="geometry">
            <mxPoint x="-780" y="190" as="targetPoint" />
          </mxGeometry>
        </mxCell>
        <mxCell id="AGj0jQ9Yn_StHLaHe2Ui-29" value="Trustpilot" style="rounded=1;whiteSpace=wrap;html=1;" parent="AGj0jQ9Yn_StHLaHe2Ui-26" vertex="1">
          <mxGeometry x="50" y="630" width="120" height="60" as="geometry" />
        </mxCell>
        <mxCell id="n5Yjz4Zl2t3M8lUH_oPP-34" style="edgeStyle=orthogonalEdgeStyle;rounded=0;orthogonalLoop=1;jettySize=auto;html=1;" parent="AGj0jQ9Yn_StHLaHe2Ui-26" source="AGj0jQ9Yn_StHLaHe2Ui-30" edge="1">
          <mxGeometry relative="1" as="geometry">
            <mxPoint x="-780" y="189.99999999999977" as="targetPoint" />
          </mxGeometry>
        </mxCell>
        <mxCell id="AGj0jQ9Yn_StHLaHe2Ui-30" value="OpinionesEspañla" style="rounded=1;whiteSpace=wrap;html=1;" parent="AGj0jQ9Yn_StHLaHe2Ui-26" vertex="1">
          <mxGeometry x="50" y="710" width="120" height="60" as="geometry" />
        </mxCell>
        <mxCell id="AGj0jQ9Yn_StHLaHe2Ui-31" value="Glassdoor" style="rounded=1;whiteSpace=wrap;html=1;" parent="AGj0jQ9Yn_StHLaHe2Ui-26" vertex="1">
          <mxGeometry x="50" y="800" width="120" height="60" as="geometry" />
        </mxCell>
        <mxCell id="TEdpB6cSkxeQCJ7XjfYa-4" style="edgeStyle=orthogonalEdgeStyle;rounded=0;orthogonalLoop=1;jettySize=auto;html=1;exitX=0;exitY=0.5;exitDx=0;exitDy=0;" parent="AGj0jQ9Yn_StHLaHe2Ui-26" source="_yCvzYgPoQqCo6M3TPPo-19" edge="1">
          <mxGeometry relative="1" as="geometry">
            <mxPoint x="-780" y="200" as="targetPoint" />
            <Array as="points">
              <mxPoint x="-770" y="285" />
              <mxPoint x="-770" y="190" />
              <mxPoint x="-780" y="190" />
            </Array>
          </mxGeometry>
        </mxCell>
        <mxCell id="_yCvzYgPoQqCo6M3TPPo-19" value="" style="swimlane;startSize=0;" parent="AGj0jQ9Yn_StHLaHe2Ui-26" vertex="1">
          <mxGeometry x="50" y="270" width="100" height="30" as="geometry" />
        </mxCell>
        <mxCell id="_yCvzYgPoQqCo6M3TPPo-26" value="" style="swimlane;startSize=0;" parent="AGj0jQ9Yn_StHLaHe2Ui-26" vertex="1">
          <mxGeometry x="50" y="360" width="100" height="30" as="geometry" />
        </mxCell>
        <mxCell id="_yCvzYgPoQqCo6M3TPPo-17" value="" style="swimlane;startSize=0;" parent="AGj0jQ9Yn_StHLaHe2Ui-26" vertex="1">
          <mxGeometry x="50" y="210" width="100" height="30" as="geometry" />
        </mxCell>
        <mxCell id="_yCvzYgPoQqCo6M3TPPo-24" value="" style="swimlane;startSize=0;" parent="AGj0jQ9Yn_StHLaHe2Ui-26" vertex="1">
          <mxGeometry x="50" y="320" width="100" height="30" as="geometry" />
        </mxCell>
        <mxCell id="TEdpB6cSkxeQCJ7XjfYa-9" style="edgeStyle=orthogonalEdgeStyle;rounded=0;orthogonalLoop=1;jettySize=auto;html=1;exitX=0;exitY=0.5;exitDx=0;exitDy=0;" parent="AGj0jQ9Yn_StHLaHe2Ui-26" source="_yCvzYgPoQqCo6M3TPPo-38" edge="1">
          <mxGeometry relative="1" as="geometry">
            <mxPoint x="-780" y="190" as="targetPoint" />
          </mxGeometry>
        </mxCell>
        <mxCell id="_yCvzYgPoQqCo6M3TPPo-38" value="" style="swimlane;startSize=0;" parent="AGj0jQ9Yn_StHLaHe2Ui-26" vertex="1">
          <mxGeometry x="48" y="460" width="100" height="30" as="geometry" />
        </mxCell>
        <mxCell id="_yCvzYgPoQqCo6M3TPPo-39" value="(...)" style="text;html=1;align=center;verticalAlign=middle;resizable=0;points=[];autosize=1;strokeColor=none;fillColor=none;" parent="_yCvzYgPoQqCo6M3TPPo-38" vertex="1">
          <mxGeometry x="10" width="40" height="30" as="geometry" />
        </mxCell>
        <mxCell id="TEdpB6cSkxeQCJ7XjfYa-13" style="edgeStyle=orthogonalEdgeStyle;rounded=0;orthogonalLoop=1;jettySize=auto;html=1;" parent="AGj0jQ9Yn_StHLaHe2Ui-26" source="TEdpB6cSkxeQCJ7XjfYa-1" edge="1">
          <mxGeometry relative="1" as="geometry">
            <mxPoint x="-780" y="180" as="targetPoint" />
          </mxGeometry>
        </mxCell>
        <mxCell id="TEdpB6cSkxeQCJ7XjfYa-1" value="GoWork" style="rounded=1;whiteSpace=wrap;html=1;" parent="AGj0jQ9Yn_StHLaHe2Ui-26" vertex="1">
          <mxGeometry x="50" y="880" width="120" height="60" as="geometry" />
        </mxCell>
        <mxCell id="_yCvzYgPoQqCo6M3TPPo-21" value="" style="swimlane;startSize=0;" parent="1" vertex="1">
          <mxGeometry x="2298" y="1100" width="100" height="30" as="geometry" />
        </mxCell>
        <mxCell id="_yCvzYgPoQqCo6M3TPPo-22" value="El País" style="text;html=1;align=center;verticalAlign=middle;resizable=0;points=[];autosize=1;strokeColor=none;fillColor=none;" parent="_yCvzYgPoQqCo6M3TPPo-21" vertex="1">
          <mxGeometry width="60" height="30" as="geometry" />
        </mxCell>
        <mxCell id="_yCvzYgPoQqCo6M3TPPo-28" value="La vanguardia" style="text;html=1;align=center;verticalAlign=middle;resizable=0;points=[];autosize=1;strokeColor=none;fillColor=none;" parent="1" vertex="1">
          <mxGeometry x="2290" y="1048" width="100" height="30" as="geometry" />
        </mxCell>
        <mxCell id="_yCvzYgPoQqCo6M3TPPo-29" value="El Mundo" style="text;html=1;align=center;verticalAlign=middle;resizable=0;points=[];autosize=1;strokeColor=none;fillColor=none;" parent="1" vertex="1">
          <mxGeometry x="2315" y="1008" width="70" height="30" as="geometry" />
        </mxCell>
        <mxCell id="_yCvzYgPoQqCo6M3TPPo-30" value="ABC" style="text;html=1;align=center;verticalAlign=middle;resizable=0;points=[];autosize=1;strokeColor=none;fillColor=none;" parent="1" vertex="1">
          <mxGeometry x="2335" y="958" width="50" height="30" as="geometry" />
        </mxCell>
        <mxCell id="TEdpB6cSkxeQCJ7XjfYa-3" style="edgeStyle=orthogonalEdgeStyle;rounded=0;orthogonalLoop=1;jettySize=auto;html=1;" parent="1" source="_yCvzYgPoQqCo6M3TPPo-31" edge="1">
          <mxGeometry relative="1" as="geometry">
            <mxPoint x="1470" y="880" as="targetPoint" />
          </mxGeometry>
        </mxCell>
        <mxCell id="_yCvzYgPoQqCo6M3TPPo-31" value="El confidencial" style="text;html=1;align=center;verticalAlign=middle;resizable=0;points=[];autosize=1;strokeColor=none;fillColor=none;" parent="1" vertex="1">
          <mxGeometry x="2290" y="898" width="100" height="30" as="geometry" />
        </mxCell>
        <mxCell id="_yCvzYgPoQqCo6M3TPPo-33" value="" style="endArrow=none;html=1;rounded=0;entryX=0;entryY=0.5;entryDx=0;entryDy=0;endFill=0;" parent="1" target="AGj0jQ9Yn_StHLaHe2Ui-22" edge="1">
          <mxGeometry width="50" height="50" relative="1" as="geometry">
            <mxPoint x="1470" y="280" as="sourcePoint" />
            <mxPoint x="2040" y="640" as="targetPoint" />
          </mxGeometry>
        </mxCell>
        <mxCell id="_yCvzYgPoQqCo6M3TPPo-34" value="" style="endArrow=none;html=1;rounded=0;entryX=0;entryY=0.5;entryDx=0;entryDy=0;endFill=0;" parent="1" target="AGj0jQ9Yn_StHLaHe2Ui-23" edge="1">
          <mxGeometry width="50" height="50" relative="1" as="geometry">
            <mxPoint x="1470" y="360" as="sourcePoint" />
            <mxPoint x="1960" y="360" as="targetPoint" />
          </mxGeometry>
        </mxCell>
        <mxCell id="_yCvzYgPoQqCo6M3TPPo-35" value="" style="endArrow=none;html=1;rounded=0;entryX=0;entryY=0.5;entryDx=0;entryDy=0;endFill=0;" parent="1" target="AGj0jQ9Yn_StHLaHe2Ui-24" edge="1">
          <mxGeometry width="50" height="50" relative="1" as="geometry">
            <mxPoint x="1470" y="440" as="sourcePoint" />
            <mxPoint x="1960" y="440" as="targetPoint" />
          </mxGeometry>
        </mxCell>
        <mxCell id="_yCvzYgPoQqCo6M3TPPo-36" value="" style="endArrow=none;html=1;rounded=0;entryX=0;entryY=0.5;entryDx=0;entryDy=0;endFill=0;" parent="1" target="AGj0jQ9Yn_StHLaHe2Ui-25" edge="1">
          <mxGeometry width="50" height="50" relative="1" as="geometry">
            <mxPoint x="1470" y="530" as="sourcePoint" />
            <mxPoint x="1960" y="530" as="targetPoint" />
          </mxGeometry>
        </mxCell>
        <mxCell id="_yCvzYgPoQqCo6M3TPPo-37" value="" style="endArrow=none;html=1;rounded=0;entryX=0;entryY=0.75;entryDx=0;entryDy=0;endFill=0;" parent="1" target="_yCvzYgPoQqCo6M3TPPo-1" edge="1">
          <mxGeometry width="50" height="50" relative="1" as="geometry">
            <mxPoint x="1470" y="630" as="sourcePoint" />
            <mxPoint x="1960" y="620" as="targetPoint" />
          </mxGeometry>
        </mxCell>
        <mxCell id="TEdpB6cSkxeQCJ7XjfYa-12" style="edgeStyle=orthogonalEdgeStyle;rounded=0;orthogonalLoop=1;jettySize=auto;html=1;exitX=0;exitY=0.5;exitDx=0;exitDy=0;" parent="1" edge="1">
          <mxGeometry relative="1" as="geometry">
            <mxPoint x="1468" y="880" as="targetPoint" />
            <mxPoint x="2298" y="1540" as="sourcePoint" />
          </mxGeometry>
        </mxCell>
        <mxCell id="TEdpB6cSkxeQCJ7XjfYa-14" value="Google functions" style="swimlane;whiteSpace=wrap;html=1;" parent="1" vertex="1">
          <mxGeometry x="1760" y="1640" width="205" height="160" as="geometry" />
        </mxCell>
        <mxCell id="TEdpB6cSkxeQCJ7XjfYa-15" value="Ejecución de &lt;br&gt;Scripts de Scrappy y/ Beatiful Soup &lt;br&gt;para crawlear las páginas web" style="text;html=1;align=center;verticalAlign=middle;resizable=0;points=[];autosize=1;strokeColor=none;fillColor=none;" parent="TEdpB6cSkxeQCJ7XjfYa-14" vertex="1">
          <mxGeometry x="-5" y="54" width="210" height="60" as="geometry" />
        </mxCell>
        <mxCell id="TEdpB6cSkxeQCJ7XjfYa-19" value="" style="endArrow=none;html=1;rounded=0;exitX=0.5;exitY=0;exitDx=0;exitDy=0;" parent="1" source="TEdpB6cSkxeQCJ7XjfYa-14" edge="1">
          <mxGeometry width="50" height="50" relative="1" as="geometry">
            <mxPoint x="1360" y="1180" as="sourcePoint" />
            <mxPoint x="1860" y="910" as="targetPoint" />
          </mxGeometry>
        </mxCell>
        <mxCell id="2NYjkfPSCdsIpFvjo_9O-3" value="Procesos de transformación, limpieza y análisis" style="swimlane;whiteSpace=wrap;html=1;startSize=23;" parent="1" vertex="1">
          <mxGeometry x="210" y="50" width="1080" height="1880" as="geometry" />
        </mxCell>
        <mxCell id="2NYjkfPSCdsIpFvjo_9O-6" value="ETL (Transformación y Limpieza de datos)&lt;br&gt;Ej: Openrefine" style="shape=process;whiteSpace=wrap;html=1;backgroundOutline=1;" parent="2NYjkfPSCdsIpFvjo_9O-3" vertex="1">
          <mxGeometry x="663" y="696" width="180" height="60" as="geometry" />
        </mxCell>
        <mxCell id="2NYjkfPSCdsIpFvjo_9O-12" style="edgeStyle=orthogonalEdgeStyle;rounded=0;orthogonalLoop=1;jettySize=auto;html=1;entryX=0.5;entryY=0;entryDx=0;entryDy=0;" parent="2NYjkfPSCdsIpFvjo_9O-3" source="2NYjkfPSCdsIpFvjo_9O-9" target="2NYjkfPSCdsIpFvjo_9O-10" edge="1">
          <mxGeometry relative="1" as="geometry" />
        </mxCell>
        <mxCell id="2NYjkfPSCdsIpFvjo_9O-9" value="Dataproc / Hadoop B" style="shape=process;whiteSpace=wrap;html=1;backgroundOutline=1;" parent="2NYjkfPSCdsIpFvjo_9O-3" vertex="1">
          <mxGeometry x="390" y="983" width="370" height="60" as="geometry" />
        </mxCell>
        <mxCell id="2NYjkfPSCdsIpFvjo_9O-13" style="edgeStyle=orthogonalEdgeStyle;rounded=0;orthogonalLoop=1;jettySize=auto;html=1;exitX=0.75;exitY=0;exitDx=0;exitDy=0;entryX=0.75;entryY=1;entryDx=0;entryDy=0;" parent="2NYjkfPSCdsIpFvjo_9O-3" source="2NYjkfPSCdsIpFvjo_9O-10" target="2NYjkfPSCdsIpFvjo_9O-9" edge="1">
          <mxGeometry relative="1" as="geometry" />
        </mxCell>
        <mxCell id="2NYjkfPSCdsIpFvjo_9O-10" value="Algoritmos de clasificación de empresas en:&lt;br&gt;a) Indicadores objetivos de impago&lt;br&gt;b) Indicadores de sentimientos&lt;br&gt;c) Seriedad de la dirección&lt;br&gt;d) Estado financiero de la empresa" style="shape=process;whiteSpace=wrap;html=1;backgroundOutline=1;" parent="2NYjkfPSCdsIpFvjo_9O-3" vertex="1">
          <mxGeometry x="390" y="1140" width="370" height="110" as="geometry" />
        </mxCell>
        <mxCell id="2NYjkfPSCdsIpFvjo_9O-19" style="edgeStyle=orthogonalEdgeStyle;rounded=0;orthogonalLoop=1;jettySize=auto;html=1;entryX=0.5;entryY=1;entryDx=0;entryDy=0;" parent="2NYjkfPSCdsIpFvjo_9O-3" source="2NYjkfPSCdsIpFvjo_9O-16" target="2NYjkfPSCdsIpFvjo_9O-17" edge="1">
          <mxGeometry relative="1" as="geometry" />
        </mxCell>
        <mxCell id="2NYjkfPSCdsIpFvjo_9O-16" value="Dataproc / Hadoop A" style="shape=process;whiteSpace=wrap;html=1;backgroundOutline=1;" parent="2NYjkfPSCdsIpFvjo_9O-3" vertex="1">
          <mxGeometry x="390" y="490" width="380" height="60" as="geometry" />
        </mxCell>
        <mxCell id="2NYjkfPSCdsIpFvjo_9O-20" style="edgeStyle=orthogonalEdgeStyle;rounded=0;orthogonalLoop=1;jettySize=auto;html=1;exitX=0.75;exitY=1;exitDx=0;exitDy=0;entryX=0.75;entryY=0;entryDx=0;entryDy=0;" parent="2NYjkfPSCdsIpFvjo_9O-3" source="2NYjkfPSCdsIpFvjo_9O-17" target="2NYjkfPSCdsIpFvjo_9O-16" edge="1">
          <mxGeometry relative="1" as="geometry" />
        </mxCell>
        <mxCell id="2NYjkfPSCdsIpFvjo_9O-17" value="Elastic search" style="shape=process;whiteSpace=wrap;html=1;backgroundOutline=1;" parent="2NYjkfPSCdsIpFvjo_9O-3" vertex="1">
          <mxGeometry x="390" y="290" width="380" height="60" as="geometry" />
        </mxCell>
        <mxCell id="n5Yjz4Zl2t3M8lUH_oPP-13" value="Cloud Scheduler" style="swimlane;whiteSpace=wrap;html=1;" parent="2NYjkfPSCdsIpFvjo_9O-3" vertex="1">
          <mxGeometry x="820" y="1670" width="205" height="160" as="geometry" />
        </mxCell>
        <mxCell id="n5Yjz4Zl2t3M8lUH_oPP-14" value="Ejecución diaria" style="text;html=1;align=center;verticalAlign=middle;resizable=0;points=[];autosize=1;strokeColor=none;fillColor=none;" parent="n5Yjz4Zl2t3M8lUH_oPP-13" vertex="1">
          <mxGeometry x="45" y="69" width="110" height="30" as="geometry" />
        </mxCell>
        <mxCell id="n5Yjz4Zl2t3M8lUH_oPP-15" value="" style="verticalLabelPosition=bottom;html=1;verticalAlign=top;align=center;strokeColor=none;fillColor=#00BEF2;shape=mxgraph.azure.scheduler;pointerEvents=1;" parent="n5Yjz4Zl2t3M8lUH_oPP-13" vertex="1">
          <mxGeometry x="150" y="34" width="40" height="50" as="geometry" />
        </mxCell>
        <mxCell id="n5Yjz4Zl2t3M8lUH_oPP-19" value="" style="shape=mxgraph.cisco.misc.content_transformation_engine_(cte);html=1;pointerEvents=1;dashed=0;fillColor=#036897;strokeColor=#ffffff;strokeWidth=2;verticalLabelPosition=bottom;verticalAlign=top;align=center;outlineConnect=0;" parent="2NYjkfPSCdsIpFvjo_9O-3" vertex="1">
          <mxGeometry x="820" y="707.5" width="58" height="37" as="geometry" />
        </mxCell>
        <mxCell id="n5Yjz4Zl2t3M8lUH_oPP-24" value="" style="editableCssRules=.*;html=1;shape=image;verticalLabelPosition=bottom;labelBackgroundColor=#ffffff;verticalAlign=top;aspect=fixed;imageAspect=0;image=data:image/svg+xml,PHN2ZyB4bWxucz0iaHR0cDovL3d3dy53My5vcmcvMjAwMC9zdmciIHhtbG5zOnY9Imh0dHBzOi8vdmVjdGEuaW8vbmFubyIgd2lkdGg9IjE1Ljk2NTYwODU5NjgwMTc1OCIgaGVpZ2h0PSIxNC43ODkzMTUyMjM2OTM4NDgiIHZpZXdCb3g9IjAuMDQxMjc5MTMzNDA5MjYxNzAzIDAuMDAwMTYyNjU3NDY2NzE3MDY0MzggMTUuOTY1NjA4NTk2ODAxNzU4IDE0Ljc4OTMxNTIyMzY5Mzg0OCI+JiN4YTsJPHN0eWxlIHR5cGU9InRleHQvY3NzIj4mI3hhOwkuc3Qwe2ZpbGw6IzQyODVmNDt9JiN4YTsJPC9zdHlsZT4mI3hhOwk8cGF0aCBjbGFzcz0ic3QwIiBkPSJNMTUuNTgxIDkuODMyYTMuMTIgMy4xMiAwIDAgMC0xLjE0LTEuMTNoLS4xMmwtNS0yLjg4YTMuMTIgMy4xMiAwIDEgMC00LjY4LTIuNjZoMHY1LjhhMy4wOSAzLjA5IDAgMCAwLTMuMDYgMGgwYTMuMTMxIDMuMTMxIDAgMCAwIDMuMSA1LjQ0aDAgMGw1LjA4LTIuOTRhMy4wOSAzLjA5IDAgMCAwIC40MSAxLjUyIDMuMTMgMy4xMyAwIDEgMCA1LjQxLTMuMTV6bS05LjQgMS4zMnYtNS4zNmEzLjExIDMuMTEgMCAwIDAgLjUzLjI1bDQuNjEgMi42N2gwYTMuMTMgMy4xMyAwIDAgMC0uNTEuMzhsLTQuNTggMi42MmEzLjA4IDMuMDggMCAwIDAtLjA1LS41NnptLjgyLTkuMzZhMS41MiAxLjUyIDAgMSAxLS43NyAxLjMyIDEuNTIgMS41MiAwIDAgMSAuNzctMS4zMnptLTMuMSAxMS4yMWExLjUyIDEuNTIgMCAxIDEgLjU3LTIuMDcgMS41MiAxLjUyIDAgMCAxLS41NyAyLjA3em05Ljc2LS4zM2ExLjUyIDEuNTIgMCAwIDEtMi4wOS0uNWgwYTEuNTIxIDEuNTIxIDAgMSAxIDIuNjMtMS41M2wuMDcuMTJhMS41MiAxLjUyIDAgMCAxLS42MiAxLjkxeiIvPiYjeGE7PC9zdmc+;" parent="2NYjkfPSCdsIpFvjo_9O-3" vertex="1">
          <mxGeometry x="440" y="998" width="32" height="30" as="geometry" />
        </mxCell>
        <mxCell id="n5Yjz4Zl2t3M8lUH_oPP-25" value="" style="editableCssRules=.*;html=1;shape=image;verticalLabelPosition=bottom;labelBackgroundColor=#ffffff;verticalAlign=top;aspect=fixed;imageAspect=0;image=data:image/svg+xml,PHN2ZyB4bWxucz0iaHR0cDovL3d3dy53My5vcmcvMjAwMC9zdmciIHhtbG5zOnY9Imh0dHBzOi8vdmVjdGEuaW8vbmFubyIgd2lkdGg9IjE1Ljk2NTYwODU5NjgwMTc1OCIgaGVpZ2h0PSIxNC43ODkzMTUyMjM2OTM4NDgiIHZpZXdCb3g9IjAuMDQxMjc5MTMzNDA5MjYxNzAzIDAuMDAwMTYyNjU3NDY2NzE3MDY0MzggMTUuOTY1NjA4NTk2ODAxNzU4IDE0Ljc4OTMxNTIyMzY5Mzg0OCI+JiN4YTsJPHN0eWxlIHR5cGU9InRleHQvY3NzIj4mI3hhOwkuc3Qwe2ZpbGw6IzQyODVmNDt9JiN4YTsJPC9zdHlsZT4mI3hhOwk8cGF0aCBjbGFzcz0ic3QwIiBkPSJNMTUuNTgxIDkuODMyYTMuMTIgMy4xMiAwIDAgMC0xLjE0LTEuMTNoLS4xMmwtNS0yLjg4YTMuMTIgMy4xMiAwIDEgMC00LjY4LTIuNjZoMHY1LjhhMy4wOSAzLjA5IDAgMCAwLTMuMDYgMGgwYTMuMTMxIDMuMTMxIDAgMCAwIDMuMSA1LjQ0aDAgMGw1LjA4LTIuOTRhMy4wOSAzLjA5IDAgMCAwIC40MSAxLjUyIDMuMTMgMy4xMyAwIDEgMCA1LjQxLTMuMTV6bS05LjQgMS4zMnYtNS4zNmEzLjExIDMuMTEgMCAwIDAgLjUzLjI1bDQuNjEgMi42N2gwYTMuMTMgMy4xMyAwIDAgMC0uNTEuMzhsLTQuNTggMi42MmEzLjA4IDMuMDggMCAwIDAtLjA1LS41NnptLjgyLTkuMzZhMS41MiAxLjUyIDAgMSAxLS43NyAxLjMyIDEuNTIgMS41MiAwIDAgMSAuNzctMS4zMnptLTMuMSAxMS4yMWExLjUyIDEuNTIgMCAxIDEgLjU3LTIuMDcgMS41MiAxLjUyIDAgMCAxLS41NyAyLjA3em05Ljc2LS4zM2ExLjUyIDEuNTIgMCAwIDEtMi4wOS0uNWgwYTEuNTIxIDEuNTIxIDAgMSAxIDIuNjMtMS41M2wuMDcuMTJhMS41MiAxLjUyIDAgMCAxLS42MiAxLjkxeiIvPiYjeGE7PC9zdmc+;" parent="2NYjkfPSCdsIpFvjo_9O-3" vertex="1">
          <mxGeometry x="440" y="510" width="32" height="30" as="geometry" />
        </mxCell>
        <mxCell id="n5Yjz4Zl2t3M8lUH_oPP-26" value="" style="editableCssRules=.*;html=1;shape=image;verticalLabelPosition=bottom;labelBackgroundColor=#ffffff;verticalAlign=top;aspect=fixed;imageAspect=0;image=data:image/svg+xml,PHN2ZyB4bWxucz0iaHR0cDovL3d3dy53My5vcmcvMjAwMC9zdmciIHhtbG5zOnY9Imh0dHBzOi8vdmVjdGEuaW8vbmFubyIgd2lkdGg9IjIwIiBoZWlnaHQ9IjE5Ljk4OTk5OTc3MTExODE2NCIgdmlld0JveD0iMCAwIDIwIDE5Ljk4OTk5OTc3MTExODE2NCI+JiN4YTsJPHN0eWxlIHR5cGU9InRleHQvY3NzIj4mI3hhOwkuc3Qwe2ZpbGw6IzQyODVmNDt9JiN4YTsJLnN0MXtmaWxsOiM2NjlkZjY7fSYjeGE7CS5zdDJ7ZmlsbDojYWVjYmZhO30mI3hhOwk8L3N0eWxlPiYjeGE7CTxwYXRoIGNsYXNzPSJzdDEiIGQ9Ik0zIDMuOTlMMCA2LjQydjcuMTNsMyAyLjQ0eiIvPiYjeGE7CTxwYXRoIGNsYXNzPSJzdDAiIGQ9Ik0zIDMuOTlsLTMgNCAzLTJ6bS0zIDhsMyA0di0yeiIvPiYjeGE7CTxwYXRoIGNsYXNzPSJzdDIiIGQ9Ik0wIDE1Ljk5bDQgNCAyLTItNi02em0uMDEtOEw1Ljk5IDJsLTItMkwwIDMuOTl6Ii8+JiN4YTsJPHBhdGggY2xhc3M9InN0MSIgZD0iTTE3IDE2bDMtMi40MlY2LjQ0TDE3IDR6Ii8+JiN4YTsJPHBhdGggY2xhc3M9InN0MCIgZD0iTTE3IDE2bDMtNC0zIDJ6bTMtOGwtMy00djJ6Ii8+JiN4YTsJPGcgY2xhc3M9InN0MiI+JiN4YTsJCTxwYXRoIGQ9Ik0yMCA0bC00LTQtMiAyIDYgNnptLS4wMSA4bC01Ljk4IDUuOTkgMiAyTDIwIDE2eiIvPiYjeGE7CQk8Y2lyY2xlIGN4PSI2IiBjeT0iOS45OSIgcj0iMSIvPiYjeGE7CQk8Y2lyY2xlIGN4PSIxMCIgY3k9IjkuOTkiIHI9IjEiLz4mI3hhOwkJPGNpcmNsZSBjeD0iMTMuOTkiIGN5PSI5Ljk5IiByPSIxIi8+JiN4YTsJPC9nPiYjeGE7PC9zdmc+;" parent="2NYjkfPSCdsIpFvjo_9O-3" vertex="1">
          <mxGeometry x="430" y="1185" width="20" height="20" as="geometry" />
        </mxCell>
        <mxCell id="n5Yjz4Zl2t3M8lUH_oPP-27" value="" style="outlineConnect=0;dashed=0;verticalLabelPosition=bottom;verticalAlign=top;align=center;html=1;shape=mxgraph.aws3.elasticsearch_service;fillColor=#F58534;gradientColor=none;" parent="2NYjkfPSCdsIpFvjo_9O-3" vertex="1">
          <mxGeometry x="436" y="297.5" width="40" height="45" as="geometry" />
        </mxCell>
        <mxCell id="2NYjkfPSCdsIpFvjo_9O-7" style="edgeStyle=orthogonalEdgeStyle;rounded=0;orthogonalLoop=1;jettySize=auto;html=1;exitX=0;exitY=0;exitDx=0;exitDy=135;exitPerimeter=0;entryX=0.5;entryY=1;entryDx=0;entryDy=0;" parent="1" source="2NYjkfPSCdsIpFvjo_9O-4" target="2NYjkfPSCdsIpFvjo_9O-6" edge="1">
          <mxGeometry relative="1" as="geometry">
            <Array as="points">
              <mxPoint x="1080" y="819" />
              <mxPoint x="865" y="820" />
            </Array>
          </mxGeometry>
        </mxCell>
        <mxCell id="2NYjkfPSCdsIpFvjo_9O-8" style="edgeStyle=orthogonalEdgeStyle;rounded=0;orthogonalLoop=1;jettySize=auto;html=1;entryX=-0.015;entryY=0.222;entryDx=0;entryDy=0;entryPerimeter=0;exitX=0.5;exitY=0;exitDx=0;exitDy=0;" parent="1" source="2NYjkfPSCdsIpFvjo_9O-6" target="2NYjkfPSCdsIpFvjo_9O-4" edge="1">
          <mxGeometry relative="1" as="geometry" />
        </mxCell>
        <mxCell id="2NYjkfPSCdsIpFvjo_9O-14" style="edgeStyle=orthogonalEdgeStyle;rounded=0;orthogonalLoop=1;jettySize=auto;html=1;exitX=0;exitY=1;exitDx=0;exitDy=-15;exitPerimeter=0;entryX=0.5;entryY=0;entryDx=0;entryDy=0;" parent="1" source="2NYjkfPSCdsIpFvjo_9O-4" target="2NYjkfPSCdsIpFvjo_9O-9" edge="1">
          <mxGeometry relative="1" as="geometry" />
        </mxCell>
        <mxCell id="2NYjkfPSCdsIpFvjo_9O-15" style="edgeStyle=orthogonalEdgeStyle;rounded=0;orthogonalLoop=1;jettySize=auto;html=1;exitX=0.75;exitY=0;exitDx=0;exitDy=0;entryX=0.145;entryY=1;entryDx=0;entryDy=-4.35;entryPerimeter=0;" parent="1" source="2NYjkfPSCdsIpFvjo_9O-9" target="2NYjkfPSCdsIpFvjo_9O-4" edge="1">
          <mxGeometry relative="1" as="geometry" />
        </mxCell>
        <mxCell id="2NYjkfPSCdsIpFvjo_9O-18" style="edgeStyle=orthogonalEdgeStyle;rounded=0;orthogonalLoop=1;jettySize=auto;html=1;exitX=0;exitY=0;exitDx=0;exitDy=15;exitPerimeter=0;entryX=0.5;entryY=1;entryDx=0;entryDy=0;" parent="1" source="2NYjkfPSCdsIpFvjo_9O-4" target="2NYjkfPSCdsIpFvjo_9O-16" edge="1">
          <mxGeometry relative="1" as="geometry" />
        </mxCell>
        <mxCell id="2NYjkfPSCdsIpFvjo_9O-21" style="edgeStyle=orthogonalEdgeStyle;rounded=0;orthogonalLoop=1;jettySize=auto;html=1;exitX=0.75;exitY=1;exitDx=0;exitDy=0;entryX=0.145;entryY=0;entryDx=0;entryDy=4.35;entryPerimeter=0;" parent="1" source="2NYjkfPSCdsIpFvjo_9O-16" target="2NYjkfPSCdsIpFvjo_9O-4" edge="1">
          <mxGeometry relative="1" as="geometry" />
        </mxCell>
        <mxCell id="n5Yjz4Zl2t3M8lUH_oPP-1" value="" style="endArrow=none;html=1;rounded=0;sketch=1;curveFitting=1;jiggle=2;" parent="1" edge="1">
          <mxGeometry width="50" height="50" relative="1" as="geometry">
            <mxPoint x="160" y="1920" as="sourcePoint" />
            <mxPoint x="160" y="40" as="targetPoint" />
          </mxGeometry>
        </mxCell>
        <mxCell id="n5Yjz4Zl2t3M8lUH_oPP-9" style="edgeStyle=orthogonalEdgeStyle;rounded=0;orthogonalLoop=1;jettySize=auto;html=1;entryX=0.5;entryY=1;entryDx=0;entryDy=0;" parent="1" source="n5Yjz4Zl2t3M8lUH_oPP-8" target="VXJAXfdLaul08e9nRnHI-6" edge="1">
          <mxGeometry relative="1" as="geometry">
            <Array as="points">
              <mxPoint x="-84" y="1010" />
              <mxPoint x="-705" y="1010" />
            </Array>
          </mxGeometry>
        </mxCell>
        <mxCell id="n5Yjz4Zl2t3M8lUH_oPP-12" value="Procesos de extracción de datos" style="swimlane;whiteSpace=wrap;html=1;startSize=23;" parent="1" vertex="1">
          <mxGeometry x="1400" y="50" width="1086" height="1880" as="geometry" />
        </mxCell>
        <mxCell id="n5Yjz4Zl2t3M8lUH_oPP-17" value="" style="editableCssRules=.*;html=1;shape=image;verticalLabelPosition=bottom;labelBackgroundColor=#ffffff;verticalAlign=top;aspect=fixed;imageAspect=0;image=data:image/svg+xml,PHN2ZyB4bWxucz0iaHR0cDovL3d3dy53My5vcmcvMjAwMC9zdmciIHhtbG5zOnY9Imh0dHBzOi8vdmVjdGEuaW8vbmFubyIgd2lkdGg9IjIwIiBoZWlnaHQ9IjE5Ljk4OTk5OTc3MTExODE2NCIgdmlld0JveD0iMCAwIDIwIDE5Ljk4OTk5OTc3MTExODE2NCI+JiN4YTsJPHN0eWxlIHR5cGU9InRleHQvY3NzIj4mI3hhOwkuc3Qwe2ZpbGw6IzQyODVmNDt9JiN4YTsJLnN0MXtmaWxsOiM2NjlkZjY7fSYjeGE7CS5zdDJ7ZmlsbDojYWVjYmZhO30mI3hhOwk8L3N0eWxlPiYjeGE7CTxwYXRoIGNsYXNzPSJzdDEiIGQ9Ik0zIDMuOTlMMCA2LjQydjcuMTNsMyAyLjQ0eiIvPiYjeGE7CTxwYXRoIGNsYXNzPSJzdDAiIGQ9Ik0zIDMuOTlsLTMgNCAzLTJ6bS0zIDhsMyA0di0yeiIvPiYjeGE7CTxwYXRoIGNsYXNzPSJzdDIiIGQ9Ik0wIDE1Ljk5bDQgNCAyLTItNi02em0uMDEtOEw1Ljk5IDJsLTItMkwwIDMuOTl6Ii8+JiN4YTsJPHBhdGggY2xhc3M9InN0MSIgZD0iTTE3IDE2bDMtMi40MlY2LjQ0TDE3IDR6Ii8+JiN4YTsJPHBhdGggY2xhc3M9InN0MCIgZD0iTTE3IDE2bDMtNC0zIDJ6bTMtOGwtMy00djJ6Ii8+JiN4YTsJPGcgY2xhc3M9InN0MiI+JiN4YTsJCTxwYXRoIGQ9Ik0yMCA0bC00LTQtMiAyIDYgNnptLS4wMSA4bC01Ljk4IDUuOTkgMiAyTDIwIDE2eiIvPiYjeGE7CQk8Y2lyY2xlIGN4PSI2IiBjeT0iOS45OSIgcj0iMSIvPiYjeGE7CQk8Y2lyY2xlIGN4PSIxMCIgY3k9IjkuOTkiIHI9IjEiLz4mI3hhOwkJPGNpcmNsZSBjeD0iMTMuOTkiIGN5PSI5Ljk5IiByPSIxIi8+JiN4YTsJPC9nPiYjeGE7PC9zdmc+;" parent="n5Yjz4Zl2t3M8lUH_oPP-12" vertex="1">
          <mxGeometry x="530" y="1719" width="20" height="20" as="geometry" />
        </mxCell>
        <mxCell id="n5Yjz4Zl2t3M8lUH_oPP-20" value="" style="editableCssRules=.*;html=1;shape=image;verticalLabelPosition=bottom;labelBackgroundColor=#ffffff;verticalAlign=top;aspect=fixed;imageAspect=0;image=data:image/svg+xml,PHN2ZyB4bWxucz0iaHR0cDovL3d3dy53My5vcmcvMjAwMC9zdmciIHhtbG5zOnY9Imh0dHBzOi8vdmVjdGEuaW8vbmFubyIgd2lkdGg9IjE0LjY1OTk5OTg0NzQxMjExIiBoZWlnaHQ9IjIwIiB2aWV3Qm94PSIwIDAgMTQuNjU5OTk5ODQ3NDEyMTEgMjAiPiYjeGE7CTxzdHlsZSB0eXBlPSJ0ZXh0L2NzcyI+JiN4YTsJLnN0MHtmaWxsOiM0Mjg1ZjQ7fSYjeGE7CS5zdDF7ZmlsbDojNjY5ZGY2O30mI3hhOwkuc3Qye2ZpbGw6I2FlY2JmYTt9JiN4YTsJPC9zdHlsZT4mI3hhOwk8c3R5bGU+JiN4YTsJCS5Ee2ZpbGwtcnVsZTpldmVub2RkfSYjeGE7CTwvc3R5bGU+JiN4YTsJPHBhdGggZD0iTTcuMzMgMTUuMzV2LTMuMDFMMCA4LjQ0djMuMDF6bTAgNC42NXYtMy4wMUwwIDEzLjA5djMuMDF6IiBjbGFzcz0ic3QyIEQiLz4mI3hhOwk8cGF0aCBkPSJNMTQuNjYgOC40NGwtNy4zMyAzLjl2My4wMWw3LjMzLTMuOXptMCA0LjY1bC03LjMzIDMuOVYyMGw3LjMzLTMuOXoiIGNsYXNzPSJzdDEgRCIvPiYjeGE7CTxwYXRoIGQ9Ik03LjMzIDB2My4wMWw3LjMzIDMuOVYzLjl6IiBjbGFzcz0ic3QwIEQiLz4mI3hhOwk8cGF0aCBkPSJNMCA2LjkxbDcuMzMtMy45VjBMMCAzLjl6IiBjbGFzcz0iRCBzdDEiLz4mI3hhOwk8cGF0aCBkPSJNNy4zMyAxMC43OVY3Ljc3TDAgMy44N3YzLjAyeiIgY2xhc3M9IkQgc3QyIi8+JiN4YTsJPHBhdGggZD0iTTE0LjY2IDMuODdsLTcuMzMgMy45djMuMDJsNy4zMy0zLjl6IiBjbGFzcz0iRCBzdDEiLz4mI3hhOzwvc3ZnPg==;" parent="n5Yjz4Zl2t3M8lUH_oPP-12" vertex="1">
          <mxGeometry x="60" y="670" width="30" height="40" as="geometry" />
        </mxCell>
        <mxCell id="n5Yjz4Zl2t3M8lUH_oPP-28" value="" style="sketch=0;html=1;dashed=0;whitespace=wrap;fillColor=#2875E2;strokeColor=#ffffff;points=[[0.005,0.63,0],[0.1,0.2,0],[0.9,0.2,0],[0.5,0,0],[0.995,0.63,0],[0.72,0.99,0],[0.5,1,0],[0.28,0.99,0]];verticalLabelPosition=bottom;align=center;verticalAlign=top;shape=mxgraph.kubernetes.icon;prIcon=api" parent="n5Yjz4Zl2t3M8lUH_oPP-12" vertex="1">
          <mxGeometry x="998" y="60" width="42" height="40" as="geometry" />
        </mxCell>
        <mxCell id="n5Yjz4Zl2t3M8lUH_oPP-29" value="" style="shape=image;html=1;verticalAlign=top;verticalLabelPosition=bottom;labelBackgroundColor=#ffffff;imageAspect=0;aspect=fixed;image=https://cdn2.iconfinder.com/data/icons/free-solid-halloween-icons/24/Spider-128.png" parent="n5Yjz4Zl2t3M8lUH_oPP-12" vertex="1">
          <mxGeometry x="998" y="670" width="50" height="50" as="geometry" />
        </mxCell>
        <mxCell id="n5Yjz4Zl2t3M8lUH_oPP-31" value="Cloud Scheduler" style="swimlane;whiteSpace=wrap;html=1;" parent="n5Yjz4Zl2t3M8lUH_oPP-12" vertex="1">
          <mxGeometry x="40" y="1670" width="205" height="160" as="geometry" />
        </mxCell>
        <mxCell id="n5Yjz4Zl2t3M8lUH_oPP-32" value="Ejecución diaria" style="text;html=1;align=center;verticalAlign=middle;resizable=0;points=[];autosize=1;strokeColor=none;fillColor=none;" parent="n5Yjz4Zl2t3M8lUH_oPP-31" vertex="1">
          <mxGeometry x="47.5" y="84" width="110" height="30" as="geometry" />
        </mxCell>
        <mxCell id="n5Yjz4Zl2t3M8lUH_oPP-33" value="" style="verticalLabelPosition=bottom;html=1;verticalAlign=top;align=center;strokeColor=none;fillColor=#00BEF2;shape=mxgraph.azure.scheduler;pointerEvents=1;" parent="n5Yjz4Zl2t3M8lUH_oPP-31" vertex="1">
          <mxGeometry x="150" y="34" width="40" height="50" as="geometry" />
        </mxCell>
      </root>
    </mxGraphModel>
  </diagram>
</mxfile>
